<?xml version="1.0" encoding="utf-8"?>
<!-- Generator: Adobe Illustrator 21.1.0, SVG Export Plug-In . SVG Version: 6.00 Build 0)  -->
<svg version="1.1" id="Layer_1" xmlns="http://www.w3.org/2000/svg" xmlns:xlink="http://www.w3.org/1999/xlink" x="0px" y="0px"
	 viewBox="0 0 810 324" style="enable-background:new 0 0 810 324;" xml:space="preserve">
<style type="text/css">
	.st0{clip-path:url(#SVGID_2_);fill:#4F2683;}
</style>
<g>
	<defs>
		<rect id="SVGID_1_" width="810" height="324"/>
	</defs>
	<clipPath id="SVGID_2_">
		<use xlink:href="#SVGID_1_"  style="overflow:visible;"/>
	</clipPath>
	<path class="st0" d="M132,52.5c0.1-0.2,0.2-0.4,0.2-0.7c-0.1,0-0.3,0-0.4,0c0,0,0,0,0,0C131.9,52.1,131.9,52.3,132,52.5
		 M235.3,199.3c0-9.2-0.4-107.2-0.5-111.2l-0.2-10.6l-9.9-4.7c-30.6-14.3-60.5-18.9-78.5-20.3c0.8,0.9,1.7,1.8,2.9,2.5
		c18.1,1.7,46.1,6.4,74.7,19.9l8.7,4.1l0.2,9.2c0.1,4,0.5,101.9,0.5,111.2c0,11.7-17.4,29.7-31.4,43.2c-11.8,11.4-35.1,33-63,45.4
		l-6.7,3l-6.7-3c-27.9-12.5-50-33.3-61.8-44.7c-14-13.5-32.6-32.2-32.6-44c0-9.3,0.4-107.2,0.5-111.2l0.2-9.2l8.7-4.1
		c28.8-13.5,57-18.3,75.1-19.9c1.1-0.8,2.1-1.6,2.8-2.5c-18,1.4-48.1,5.9-78.9,20.4l-9.9,4.7l-0.2,10.6c-0.1,4-0.5,101.9-0.5,111.2
		c0,10,12.5,25.5,33.3,45.6c11.9,11.5,34.2,32.6,62.5,45.2l7.6,3.4l7.6-3.4c28.3-12.6,51.8-34.4,63.7-45.9
		C224,224,235.3,209.3,235.3,199.3"/>
	<path class="st0" d="M86.5,156c1.9-13.5,8.8-46.2,32.4-72.6c0,0-49.3,14.9-62.3,85.9L86.5,156z"/>
	<path class="st0" d="M176.9,156c-1.9-13.5-8.8-46.2-32.4-72.6c0,0,49.3,14.9,62.3,85.9L176.9,156z"/>
	<path class="st0" d="M189.7,216.3c2.7,1.1,4.6,3.3,5.8,6.2c-2.3,2.4-4.4,4.6-6,6.2c-4.2,4.2-10.4,9.9-17.8,16V236
		c0.1-10.2,2-18.5,9.7-20.3l-3.1-17.5l-6.1-2.8v-4.3l26.9,12.2v4.3l-7.4-3.3L189.7,216.3z M137.7,216.2c8.8,2.5,15.2,10.4,15.2,19.8
		v22.3c-5.5,3.5-11.3,6.7-17.3,9.5l-3.8,1.8l-3.8-1.8c-6-2.7-11.7-6-17.2-9.4V236c0-9.4,6.4-17.3,15.2-19.8l-3.9-20.7h-9.6v-4.3
		h38.7v4.3h-9.6L137.7,216.2z M82.2,215.8c7.7,1.8,9.5,10.1,9.7,20.3v8.7c-7.4-6-13.6-11.8-17.8-16c-1.6-1.6-3.7-3.7-5.9-6.1
		c1.2-2.9,3.1-5.1,5.8-6.2l-2.1-11.9l-7.4,3.3v-4.3l26.9-12.2v4.3l-6.1,2.8L82.2,215.8z M226.1,89.4l-0.1-6.1l-5.6-2.7
		c-22.4-10.8-44.7-16-61.7-18.4c-0.3,3.1-0.7,7.7-1,11.6c14.6,2.2,33.3,6.8,52.1,15.8l4.9,2.4l0.1,5.3c0.1,2.6-0.1,46.5-0.1,74
		l9.5,3.9l-9.5,9c0,4.4,0,7.5,0,8.7c0,4-3,9.4-7,15v-17.4l-36.8-16.4h-33h-12.2h-33L56,190.5v17.7c-4.1-5.7-7.2-11.2-7.2-15.2
		c0-1.2,0-4.6,0-9.3l-9.2-8.7l9.2-3.7c-0.1-27.5-0.2-71.2-0.1-73.8l0.1-5.3l3.6-2.4c19-9.2,38.8-13.7,53.9-15.9
		c-0.3-3.9-0.7-8.5-1-11.5c-17.4,2.4-41,7.5-63.7,18.4l-4,2.7l-0.1,6.1c-0.1,4.2,0.2,98,0.2,106.2c0,10.9,20,32,28.6,40.6
		c11.4,11.3,34.5,32.1,61.2,44.4l4.4,2l4.4-2c26.7-12.3,49.8-33.1,61.2-44.4c0.1-0.1,0.2-0.2,0.3-0.3c0,0,0,0,0,0.1V236
		c8.7-8.7,28.4-29.5,28.4-40.3C226,187.4,226.2,93.6,226.1,89.4"/>
	<path class="st0" d="M150.9,73l0.7-11.5c0,0-16.3,0.8-16.1-32.7c0,0-0.8-0.5-2.3-0.8c1.9-0.6,3.3-2.4,3.3-4.4
		c0-2.6-2.1-4.7-4.8-4.7S127,21,127,23.6c0,2.1,1.4,3.8,3.2,4.4c-1.6,0.3-2.4,0.8-2.4,0.8c0.8,33.6-16.1,32.7-16.1,32.7l0.7,11.5
		c12.5,0.2,13.2,8.5,13.2,8.5c-23.8,28.4-27.3,59.8-27.7,73.6h27.7h12.2h27.6c-0.3-13.8-3.9-45.2-27.7-73.6
		C137.8,81.6,138.4,73.2,150.9,73"/>
	<path class="st0" d="M759.2,245.9v-3.2c0-0.9,0.4-1.1,1.2-1.1c0.7,0,2.1,0.4,2.1,2c0,0.9-0.3,1.5-1,1.9c-0.4,0.3-1.1,0.4-1.5,0.4
		H759.2z M767,251.5c-0.4-0.2-0.7-0.4-1.2-0.9c-1.3-1.5-2-2.5-2.9-4.2c1.4-0.5,2.4-1.5,2.4-3c0-2.6-2.3-3.1-4.3-3.1h-6v1.3
		c1.4,0.1,1.6,0.1,1.6,1.7v6c0,1.6-0.2,1.6-1.7,1.7v1.4h6v-1.4c-1.5-0.1-1.7-0.1-1.7-1.7v-2.1h0.4c0.4,0,0.9,0.1,1.2,0.6
		c0.4,0.6,0.8,1.8,1.6,2.9c1.1,1.4,2.3,1.9,4.3,1.9L767,251.5z M760.4,237c5.2,0,9,4.2,9,9.4c0,5.3-3.8,9.3-9,9.3
		c-5.1,0-8.9-4-8.9-9.3C751.5,241.2,755.2,237,760.4,237 M760.4,235c-6.5,0-11.5,5.2-11.5,11.5c0,6.5,4.9,11.5,11.5,11.5
		c6.6,0,11.6-5.4,11.6-11.5C772,240.2,767,235,760.4,235"/>
	<path class="st0" d="M283.9,118.5v100.3c0,11.8-3.3,19.4-11.1,24.1c-6.9,3.8-12.8,4.1-12.8,10c0,2.8,2.2,4.6,6.7,4.6
		c5.3,0,20.2-2.3,43.8-2.3c21.1,0,38.5,2.3,51.8,2.3c17.2,0,28.8-4.4,36.6-14.6c6.9-9.2,10.8-22.5,10.8-27.9c0-3.1-1.7-5.1-3.9-5.1
		c-5.5,0-5.5,9-17.5,18.2c-11.4,9-30.8,14.8-49.4,14.8c-20.8,0-22.2-5.4-22.2-23.5v-39.9c0-10.5,1.4-14.3,11.6-14.3h10.8
		c16.1,0,23.6,2.6,28,13.3c3.3,8.4,0.6,14.6,7.5,14.6c3,0,4.7-1.5,4.7-4.9c0-3.1-2.2-14.1-2.2-33.3c0-11.8,1.1-17.9,1.1-19.4
		c0-3.6-1.1-5.4-4.4-5.4c-6.7,0-6.7,7.9-11.9,14.6c-5.5,6.7-12.5,8.7-24.4,8.7h-8.9c-8.6,0-11.9-3.1-11.9-10.7v-39.9
		c0-11.3,6.1-14.8,22.5-14.8c27.4,0,40.5,3.6,46.3,14.6c3.9,7.7-0.3,14.8,7.2,14.8c3.9,0,4.4-1.3,4.4-5.1c0-1.8-0.3-9.2-0.3-21.8
		v-5.4c0-8.4-1.7-9.2-11.1-9.2c-12.2,0-38.3,2-78.5,2c-29.7,0-45.5-2-48-2c-4.7,0-7.2,2-7.2,5.4c0,8.4,14.1,2.6,24.1,11
		C283.6,98.3,283.9,105.9,283.9,118.5"/>
	<path class="st0" d="M779.6,79.8c0-3.1-1.9-4.1-6.1-4.1c-4.4,0-13,2-26.1,2c-13.3,0-23-1.8-28.8-1.8c-4.4,0-6.9,1-6.9,4.4
		c0,6.9,10,4.6,21.3,8.7c10.8,4.1,12.5,14.6,12.5,32.8v44.3c0,27.4-2.2,46.6-15,60.4c-10.3,11.3-26.1,17.4-44.4,17.4
		c-20,0-35.8-8.7-44.9-23.5c-7.5-12.3-7.8-27.4-7.8-45.8v-3.8V130c0-25.3,0.3-37.4,8.9-42c6.7-3.6,13.9-2.6,13.9-7.9
		c0-3.3-2.5-4.6-7.5-4.6c-5.8,0-18.3,2.6-38.3,2.6c-15.2,0-26.1-1.8-31.9-1.8c-1.5,0-2.7,0.1-3.7,0.3c0,0,0,0,0,0
		c-0.5,0.1-1,0.3-1.3,0.4c0,0,0,0-0.1,0c-0.2,0.1-0.3,0.2-0.5,0.3c-2,1-3.5,2.9-5.1,5.8c-0.3,0.5-0.5,0.9-0.8,1.4c0,0,0,0.1-0.1,0.1
		c0,0,0,0,0,0c-1,2-2.1,3.9-5.1,3.9c-5,0-25.8-15.6-61.5-15.6c-28.6,0-53,10.7-71,30.5c-16.6,18.4-26.1,42.7-26.1,68.3
		c0,52.2,36.6,88.5,91.2,88.5c27.4,0,51-8.4,70.1-25.3c12.5-11,18.3-20,18.3-23.8c0-2.6-1.4-3.8-3.6-3.8c-5,0-8,6.9-16.6,14.1
		c-16.1,13.1-35.2,20.2-53.2,20.2c-23.3,0-42.4-11-56.6-32.2c-10.3-15.1-15.8-34-15.8-53c0-45.8,26.6-73.2,58.8-73.2
		c24.4,0,48,12.3,63.8,32.8c11.9,15.6,11.1,22.8,17.2,22.8c2.5,0,3.9-1.3,3.9-4.6c0-4.4-3-18.7-4.2-42c-0.1-2.6-0.1-4.8-0.2-6.5
		c2.9,0.6,7,1,11.9,2.7c9.4,3.1,12.2,7.2,12.2,22.8v62.4c0,57.6,18.9,86,74.9,86c56,0,84.3-30.7,84.3-92.1v-32.8
		c0-27.6,0-42,6.1-46.1C772.4,84.2,779.6,85.7,779.6,79.8"/>
</g>
</svg>
