<?xml version="1.0" encoding="utf-8"?>
<!-- Generator: Adobe Illustrator 16.0.0, SVG Export Plug-In . SVG Version: 6.00 Build 0)  -->
<!DOCTYPE svg PUBLIC "-//W3C//DTD SVG 1.1//EN" "http://www.w3.org/Graphics/SVG/1.1/DTD/svg11.dtd">
<svg version="1.1" id="Layer_1" xmlns="http://www.w3.org/2000/svg" xmlns:xlink="http://www.w3.org/1999/xlink" x="0px" y="0px"
	 width="101.436px" height="63.456px" viewBox="0 0 101.436 63.456" enable-background="new 0 0 101.436 63.456"
	 xml:space="preserve">
<g>
	<path fill="#5B2B82" d="M15.221,0v34.82c2.228-0.587,5.176-0.942,7.987-1.164V16.737c0-4.129,3.297-7.475,7.365-7.475
		c4.065,0,7.368,3.346,7.368,7.475V34.44c2.501,0.414,5.156,0.972,7.972,1.707v-19.41c0-4.129,3.294-7.475,7.362-7.475
		c4.07,0,7.368,3.346,7.368,7.475v24.356c2.364,0.975,5.058,2.137,7.974,3.281V16.737c0-4.129,3.297-7.475,7.364-7.475
		s7.365,3.346,7.365,7.475V48.73c2.65,0.779,5.606,0.998,7.93,0.834V0H15.221z"/>
	<path fill="#FFC627" d="M0,48.949c0.867-1.236,14.09-21.371,57.836-4.867c9.989,3.77,29.025,14.15,43.6,6.709
		C77.484,75.873,42.038,28.263,0,48.949L0,48.949L0,48.949z"/>
	<path fill="#FFC627" d="M16.585,47.355c0,0,9.267-2.432,30.825,4.812c18.214,6.123,20.772,9.666,37.495,8.387
		c0,0-12.423,7.584-38.671-1.771C33.218,54.144,31.679,49.597,16.585,47.355z"/>
</g>
</svg>
